<svg xmlns="http://www.w3.org/2000/svg" width="59" height="43" fill="none" class="gPDkH89pG55WKA2Wkjc9"><path stroke="#c5d1e0" stroke-width="2" d="M7.704 8.26a7.26 7.26 0 1 1 14.519 0 7.26 7.26 0 0 1-14.52 0"></path><path stroke="#c5d1e0" stroke-width="2" d="M22.222 29.518H2c.841-13.609 12.963-13.48 12.963-13.48s3.864-.364 7.26 2.073"></path><path stroke="#c5d1e0" stroke-linejoin="round" stroke-width="2" d="M21.704 38.852v1.815l.123.093a3.342 3.342 0 0 0 2.024.684h32.24c.608 0 1.199-.208 1.676-.59l.233-.188v-1.814H21.704ZM52.295 35.568a.69.69 0 0 1-.69.691H28.097a.69.69 0 0 1-.69-.69v-15.73a.69.69 0 0 1 .69-.69h23.385c.381 0 .814.13.814.511v15.908Z" clip-rule="evenodd"></path><path stroke="#232F3E" stroke-linejoin="round" stroke-width="2" d="M24.815 38.852V17.324c0-.424.328-.769.734-.769h28.606c.406 0 .734.345.734.77v21.527"></path></svg>