<svg xmlns="http://www.w3.org/2000/svg" width="56" height="43" fill="none" class="gPDkH89pG55WKA2Wkjc9"><path stroke="#c5d1e0" stroke-linejoin="round" stroke-width="2" d="M5.021 41.213H2.15A1.149 1.149 0 0 1 1 40.063V2.15C1 1.514 1.514 1 2.149 1H5.02v40.213Z" clip-rule="evenodd"></path><path stroke="#c5d1e0" stroke-linejoin="round" stroke-width="2" d="M55 11.34v28.724c0 .635-.514 1.149-1.149 1.149H50.98V1h2.872c.635 0 1.15.514 1.15 1.149v6.32M5.021 8.468h10.34M39.352 23.953v-3.359a4.9 4.9 0 0 1-2.812-4.443 4.919 4.919 0 0 1 3.515-4.718v4.015h2.812v-4.015a4.919 4.919 0 0 1 3.516 4.718 4.9 4.9 0 0 1-2.813 4.443v3.36M10.767 23.98V13.925h5.745v10.053M16.512 18.234h-2.873M16.512 21.867h-2.873M30.873 23.979V9.543M25.703 9.618v14.36M32.639 1.46a3.327 3.327 0 0 0 2.044.702 3.325 3.325 0 0 0 2.057-.664M36.408 5.817a2.92 2.92 0 0 0-1.884-.7 2.92 2.92 0 0 0-1.898.666"></path><path stroke="#c5d1e0" stroke-linejoin="round" stroke-width="2" d="m25.826 1 6.64.061-.047 5.108-1.545 3.655-5.17-.061s.302-3.927-1.122-4.387c-1.524-.49-3.878 1.411-5.938 4.241l-1.374-.574C18.675 6.116 21.736.963 25.825 1ZM37.7 6.41l1.242.017.048-5.252-1.24-.017A1.758 1.758 0 0 0 35.976 2.9l-.016 1.738c-.009.97.77 1.764 1.74 1.772Z" clip-rule="evenodd"></path><path stroke="#c5d1e0" stroke-linejoin="round" stroke-width="2" d="M41.213 4.447h9.766M5.021 4.447h12.638M33.745 8.468h17.234M18.807 39.49h32.17M5.021 39.49h10.915M5.021 23.978h45.957"></path></svg>